<mxfile host="app.diagrams.net" modified="2024-06-02T07:22:30.409Z" agent="Mozilla/5.0 (Macintosh; Intel Mac OS X 10_15_7) AppleWebKit/537.36 (KHTML, like Gecko) Chrome/123.0.0.0 Safari/537.36" etag="HuB8hlKP-rkNo8oxIj05" version="24.4.13" type="device">
  <diagram name="Seite-1" id="38cPX_BRVSOnZxeLanHT">
    <mxGraphModel dx="766" dy="1855" grid="1" gridSize="10" guides="1" tooltips="1" connect="1" arrows="1" fold="1" page="1" pageScale="1" pageWidth="827" pageHeight="1169" math="0" shadow="0">
      <root>
        <mxCell id="0" />
        <mxCell id="1" parent="0" />
        <mxCell id="YlgNOkUjZrg-a2CwAGe6-1" value="" style="rounded=0;whiteSpace=wrap;html=1;fillColor=none;" vertex="1" parent="1">
          <mxGeometry x="200" y="124" width="600" height="390" as="geometry" />
        </mxCell>
        <mxCell id="YlgNOkUjZrg-a2CwAGe6-2" value="" style="aspect=fixed;sketch=0;html=1;dashed=0;whitespace=wrap;verticalLabelPosition=bottom;verticalAlign=top;fillColor=#2875E2;strokeColor=#ffffff;points=[[0.005,0.63,0],[0.1,0.2,0],[0.9,0.2,0],[0.5,0,0],[0.995,0.63,0],[0.72,0.99,0],[0.5,1,0],[0.28,0.99,0]];shape=mxgraph.kubernetes.icon2;prIcon=ing" vertex="1" parent="1">
          <mxGeometry x="260" y="363" width="50" height="48" as="geometry" />
        </mxCell>
        <mxCell id="YlgNOkUjZrg-a2CwAGe6-4" value="" style="aspect=fixed;sketch=0;html=1;dashed=0;whitespace=wrap;verticalLabelPosition=bottom;verticalAlign=top;fillColor=#2875E2;strokeColor=#ffffff;points=[[0.005,0.63,0],[0.1,0.2,0],[0.9,0.2,0],[0.5,0,0],[0.995,0.63,0],[0.72,0.99,0],[0.5,1,0],[0.28,0.99,0]];shape=mxgraph.kubernetes.icon2;kubernetesLabel=1;prIcon=pod" vertex="1" parent="1">
          <mxGeometry x="450" y="363" width="50" height="48" as="geometry" />
        </mxCell>
        <mxCell id="YlgNOkUjZrg-a2CwAGe6-5" value="" style="aspect=fixed;sketch=0;html=1;dashed=0;whitespace=wrap;verticalLabelPosition=bottom;verticalAlign=top;fillColor=#2875E2;strokeColor=#ffffff;points=[[0.005,0.63,0],[0.1,0.2,0],[0.9,0.2,0],[0.5,0,0],[0.995,0.63,0],[0.72,0.99,0],[0.5,1,0],[0.28,0.99,0]];shape=mxgraph.kubernetes.icon2;kubernetesLabel=1;prIcon=pod" vertex="1" parent="1">
          <mxGeometry x="320" y="164" width="50" height="48" as="geometry" />
        </mxCell>
        <mxCell id="YlgNOkUjZrg-a2CwAGe6-6" value="Postgres Zalando Operator" style="text;html=1;align=center;verticalAlign=middle;whiteSpace=wrap;rounded=0;" vertex="1" parent="1">
          <mxGeometry x="290" y="224" width="115" height="30" as="geometry" />
        </mxCell>
        <mxCell id="YlgNOkUjZrg-a2CwAGe6-7" value="Traefik&lt;div&gt;(Ingress Controller)&lt;/div&gt;" style="text;html=1;align=center;verticalAlign=middle;whiteSpace=wrap;rounded=0;" vertex="1" parent="1">
          <mxGeometry x="227.5" y="420" width="115" height="30" as="geometry" />
        </mxCell>
        <mxCell id="YlgNOkUjZrg-a2CwAGe6-8" value="PowerDNS Recursor" style="text;html=1;align=center;verticalAlign=middle;whiteSpace=wrap;rounded=0;" vertex="1" parent="1">
          <mxGeometry x="420" y="420" width="115" height="30" as="geometry" />
        </mxCell>
        <mxCell id="YlgNOkUjZrg-a2CwAGe6-9" value="" style="aspect=fixed;sketch=0;html=1;dashed=0;whitespace=wrap;verticalLabelPosition=bottom;verticalAlign=top;fillColor=#2875E2;strokeColor=#ffffff;points=[[0.005,0.63,0],[0.1,0.2,0],[0.9,0.2,0],[0.5,0,0],[0.995,0.63,0],[0.72,0.99,0],[0.5,1,0],[0.28,0.99,0]];shape=mxgraph.kubernetes.icon2;kubernetesLabel=1;prIcon=pod" vertex="1" parent="1">
          <mxGeometry x="692.5" y="393" width="50" height="48" as="geometry" />
        </mxCell>
        <mxCell id="YlgNOkUjZrg-a2CwAGe6-10" value="" style="aspect=fixed;sketch=0;html=1;dashed=0;whitespace=wrap;verticalLabelPosition=bottom;verticalAlign=top;fillColor=#2875E2;strokeColor=#ffffff;points=[[0.005,0.63,0],[0.1,0.2,0],[0.9,0.2,0],[0.5,0,0],[0.995,0.63,0],[0.72,0.99,0],[0.5,1,0],[0.28,0.99,0]];shape=mxgraph.kubernetes.icon2;kubernetesLabel=1;prIcon=pod" vertex="1" parent="1">
          <mxGeometry x="692.5" y="194" width="50" height="48" as="geometry" />
        </mxCell>
        <mxCell id="YlgNOkUjZrg-a2CwAGe6-12" value="PowerDNS Authoritative" style="text;html=1;align=center;verticalAlign=middle;whiteSpace=wrap;rounded=0;" vertex="1" parent="1">
          <mxGeometry x="651.25" y="444" width="132.5" height="30" as="geometry" />
        </mxCell>
        <mxCell id="YlgNOkUjZrg-a2CwAGe6-13" value="Postgres Database" style="text;html=1;align=center;verticalAlign=middle;whiteSpace=wrap;rounded=0;" vertex="1" parent="1">
          <mxGeometry x="650" y="242" width="132.5" height="30" as="geometry" />
        </mxCell>
        <mxCell id="YlgNOkUjZrg-a2CwAGe6-19" value="Client" style="shape=umlActor;verticalLabelPosition=bottom;verticalAlign=top;html=1;outlineConnect=0;" vertex="1" parent="1">
          <mxGeometry x="20" y="363" width="30" height="60" as="geometry" />
        </mxCell>
        <mxCell id="YlgNOkUjZrg-a2CwAGe6-20" value="" style="endArrow=classic;html=1;rounded=0;entryX=0.005;entryY=0.63;entryDx=0;entryDy=0;entryPerimeter=0;" edge="1" parent="1" source="YlgNOkUjZrg-a2CwAGe6-19" target="YlgNOkUjZrg-a2CwAGe6-2">
          <mxGeometry width="50" height="50" relative="1" as="geometry">
            <mxPoint x="120" y="320" as="sourcePoint" />
            <mxPoint x="240" y="320" as="targetPoint" />
          </mxGeometry>
        </mxCell>
        <mxCell id="YlgNOkUjZrg-a2CwAGe6-21" value="&lt;font style=&quot;font-size: 10px;&quot;&gt;DNS-Request&lt;/font&gt;" style="text;html=1;align=center;verticalAlign=middle;whiteSpace=wrap;rounded=0;" vertex="1" parent="1">
          <mxGeometry x="80" y="363" width="82.5" height="30" as="geometry" />
        </mxCell>
        <mxCell id="YlgNOkUjZrg-a2CwAGe6-22" value="" style="endArrow=classic;html=1;rounded=0;entryX=0.005;entryY=0.63;entryDx=0;entryDy=0;entryPerimeter=0;exitX=0.995;exitY=0.63;exitDx=0;exitDy=0;exitPerimeter=0;" edge="1" parent="1" source="YlgNOkUjZrg-a2CwAGe6-2" target="YlgNOkUjZrg-a2CwAGe6-4">
          <mxGeometry width="50" height="50" relative="1" as="geometry">
            <mxPoint x="320" y="392.5" as="sourcePoint" />
            <mxPoint x="440" y="392.5" as="targetPoint" />
          </mxGeometry>
        </mxCell>
        <mxCell id="YlgNOkUjZrg-a2CwAGe6-23" value="" style="endArrow=classic;html=1;rounded=0;entryX=0.04;entryY=0.417;entryDx=0;entryDy=0;entryPerimeter=0;exitX=0.995;exitY=0.63;exitDx=0;exitDy=0;exitPerimeter=0;" edge="1" parent="1" source="YlgNOkUjZrg-a2CwAGe6-4" target="YlgNOkUjZrg-a2CwAGe6-9">
          <mxGeometry width="50" height="50" relative="1" as="geometry">
            <mxPoint x="510" y="386.75" as="sourcePoint" />
            <mxPoint x="640" y="434" as="targetPoint" />
          </mxGeometry>
        </mxCell>
        <mxCell id="YlgNOkUjZrg-a2CwAGe6-24" value="" style="image;aspect=fixed;html=1;points=[];align=center;fontSize=12;image=img/lib/azure2/networking/DNS_Zones.svg;" vertex="1" parent="1">
          <mxGeometry x="660" width="50" height="50" as="geometry" />
        </mxCell>
        <mxCell id="YlgNOkUjZrg-a2CwAGe6-25" value="&lt;font style=&quot;font-size: 10px;&quot;&gt;Kubernetes Cluster&lt;/font&gt;" style="text;html=1;align=center;verticalAlign=middle;whiteSpace=wrap;rounded=0;" vertex="1" parent="1">
          <mxGeometry x="207.5" y="134" width="72.5" height="30" as="geometry" />
        </mxCell>
        <mxCell id="YlgNOkUjZrg-a2CwAGe6-27" value="" style="endArrow=classic;html=1;rounded=0;entryX=0.167;entryY=1.001;entryDx=0;entryDy=0;entryPerimeter=0;exitX=0.995;exitY=0.63;exitDx=0;exitDy=0;exitPerimeter=0;" edge="1" parent="1" source="YlgNOkUjZrg-a2CwAGe6-4" target="YlgNOkUjZrg-a2CwAGe6-24">
          <mxGeometry width="50" height="50" relative="1" as="geometry">
            <mxPoint x="455" y="260" as="sourcePoint" />
            <mxPoint x="650" y="280" as="targetPoint" />
          </mxGeometry>
        </mxCell>
        <mxCell id="YlgNOkUjZrg-a2CwAGe6-28" value="&lt;font style=&quot;font-size: 10px;&quot;&gt;Forward to own managed dns zone&lt;/font&gt;" style="text;html=1;align=center;verticalAlign=middle;whiteSpace=wrap;rounded=0;rotation=6;" vertex="1" parent="1">
          <mxGeometry x="550" y="372" width="120" height="30" as="geometry" />
        </mxCell>
        <mxCell id="YlgNOkUjZrg-a2CwAGe6-29" value="&lt;font style=&quot;font-size: 10px;&quot;&gt;Forward to public managed dns zone&lt;/font&gt;" style="text;html=1;align=center;verticalAlign=middle;whiteSpace=wrap;rounded=0;rotation=297;" vertex="1" parent="1">
          <mxGeometry x="460" y="290" width="120" height="30" as="geometry" />
        </mxCell>
        <mxCell id="YlgNOkUjZrg-a2CwAGe6-30" value="" style="endArrow=classic;html=1;rounded=0;entryX=0.005;entryY=0.63;entryDx=0;entryDy=0;entryPerimeter=0;exitX=0.995;exitY=0.63;exitDx=0;exitDy=0;exitPerimeter=0;" edge="1" parent="1" source="YlgNOkUjZrg-a2CwAGe6-5" target="YlgNOkUjZrg-a2CwAGe6-10">
          <mxGeometry width="50" height="50" relative="1" as="geometry">
            <mxPoint x="395" y="187.66" as="sourcePoint" />
            <mxPoint x="605" y="187.66" as="targetPoint" />
          </mxGeometry>
        </mxCell>
        <mxCell id="YlgNOkUjZrg-a2CwAGe6-31" value="&lt;font style=&quot;font-size: 10px;&quot;&gt;Manages Postgres DB Pods&lt;/font&gt;" style="text;html=1;align=center;verticalAlign=middle;whiteSpace=wrap;rounded=0;rotation=6;" vertex="1" parent="1">
          <mxGeometry x="404.96" y="173.78" width="135.01" height="30" as="geometry" />
        </mxCell>
        <mxCell id="YlgNOkUjZrg-a2CwAGe6-32" value="e.g. Google DNS (8.8.8.8)" style="text;html=1;align=center;verticalAlign=middle;whiteSpace=wrap;rounded=0;" vertex="1" parent="1">
          <mxGeometry x="627.5" y="-40" width="115" height="30" as="geometry" />
        </mxCell>
      </root>
    </mxGraphModel>
  </diagram>
</mxfile>
